# xmcd
#
# Track frame offsets:
#	150
#	12145
#	24172
#	35092
#	47280
#	57370
#	69810
#	82002
#	94090
#	104562
#	116865
#	127355
#	140965
#	155122
#	167085
#	178660
#	191185
#	202152
#	213622
#	224607
#
# Disc length: 3194 seconds
#
# Revision: 1
# Processed by: cddbd v1.5.1PL0 Copyright (c) Steve Scherf et al.
# Submitted via: audiograbber 1.83.01
#
DISCID=3b0c7814
DTITLE=Wanda Jackson - Country Classics II
DYEAR=1900
DGENRE=Country
TTITLE0=Crazy
TTITLE1=D.I.V.O.R.C.E.  Live
TTITLE2=Please help me, i'm falling
TTITLE3=You win again
TTITLE4=By the Time you get to Phoenix
TTITLE5=Swinging Doors
TTITLE6=There stands the Glass
TTITLE7=Don't touch me
TTITLE8=Today i started loving you again
TTITLE9=Oh lonesome me
TTITLE10=Just between you and me
TTITLE11=The last Letter
TTITLE12=Just call me lonesome
TTITLE13=Singing the Blues
TTITLE14=Making believe
TTITLE15=I'm so lonesome, i could cry
TTITLE16=Break my mind
TTITLE17=Pass me by
TTITLE18=Hello Darling
TTITLE19=Love of the common People
EXTD=
EXTT0=
EXTT1=
EXTT2=
EXTT3=
EXTT4=
EXTT5=
EXTT6=
EXTT7=
EXTT8=
EXTT9=
EXTT10=
EXTT11=
EXTT12=
EXTT13=
EXTT14=
EXTT15=
EXTT16=
EXTT17=
EXTT18=
EXTT19=
PLAYORDER=
